<?xml version="1.0" encoding="utf-8"?>
<!-- Generator: Adobe Illustrator 22.1.0, SVG Export Plug-In . SVG Version: 6.00 Build 0)  -->
<svg version="1.1" id="Layer_1" xmlns="http://www.w3.org/2000/svg" xmlns:xlink="http://www.w3.org/1999/xlink" x="0px" y="0px"
	 viewBox="0 0 400 400" style="enable-background:new 0 0 400 400;" xml:space="preserve">
<style type="text/css">
	.st0{fill:#382977;}
	.st1{fill:#5E51A2;}
</style>
<path class="st0" d="M107.7,168.9h31.7v17.8c11.3-13.8,24.9-20.7,40.5-20.7c8.3,0,15.6,1.7,21.7,5.1c6.1,3.4,11.1,8.6,15.1,15.6
	c5.7-6.9,11.9-12.1,18.5-15.6c6.6-3.4,13.7-5.1,21.2-5.1c9.6,0,17.6,1.9,24.3,5.8c6.6,3.9,11.6,9.6,14.8,17.1
	c2.4,5.6,3.6,14.5,3.6,26.9v71.9l-34.4-25.9l0-37.2c0-12.9-1.2-21.2-3.6-25c-3.2-4.9-8.1-7.4-14.7-7.4c-4.8,0-9.4,1.5-13.6,4.4
	c-4.2,2.9-7.3,7.2-9.2,12.9c-1.9,5.7-2.8,14.6-2.8,26.9V299h-34.4v-71.3c0-12.7-0.6-20.8-1.8-24.5c-1.2-3.7-3.1-6.4-5.7-8.2
	s-6.1-2.7-10.5-2.7c-5.3,0-10.1,1.4-14.3,4.3c-4.2,2.9-7.3,7-9.1,12.4c-1.8,5.4-2.8,14.3-2.8,26.8V299h-34.4V168.9z"/>
<path class="st0" d="M264.7,261.9l34.4-5.2c0.2,9.1,4.6,11.8,9.1,15.2c4.5,3.5,10.8,5.2,18.9,5.2c8.9,0,15.6-1.6,20.1-4.9
	c3-2.3,4.5-5.3,4.5-9.2c0-2.6-0.8-4.8-2.5-6.5c-1.7-1.6-5.6-3.1-11.5-4.5c-27.8-6.1-45.4-11.7-52.8-16.8
	c-10.3-7-15.4-16.8-15.4-29.3c0-11.3,4.5-20.7,13.4-28.4c8.9-7.7,22.7-11.5,41.4-11.5c17.8,0,31,2.9,39.7,8.7
	c8.7,5.8,14.6,14.4,17.9,25.7l-32.5,6c-1.4-5.1-4-8.9-7.9-11.6c-3.9-2.7-9.4-4-16.6-4c-9.1,0-15.6,1.3-19.5,3.8
	c-2.6,1.8-3.9,4.1-3.9,7c0,2.5,1.1,4.5,3.4,6.2c3.1,2.3,13.8,5.5,32.2,9.7c18.3,4.2,31.1,9.3,38.4,15.3c7.2,6.1,10.8,14.7,10.8,25.6
	c0,11.9-5,22.2-14.9,30.7c-10,8.6-24.7,12.9-44.2,12.9c-17.7,0-31.7-3.6-42.1-10.8C274.6,284,264.7,274.5,264.7,261.9z"/>
<path class="st0" d="M142.4,299h-34.8v-19.1c-5.3,7.4-11.6,13-18.8,16.6c-7.2,3.6-14.5,5.4-21.9,5.4c-14.9,0-27.7-6-38.4-18.1
	c-10.7-12-16-28.8-16-50.4c0-22.1,5.2-38.8,15.6-50.3C38.5,171.7,51.6,166,67.4,166c14.5,0,27.1,6,37.7,18.1v-64.7h37.2V299z
	 M47.7,231.1c0,13.9,1.9,23.9,5.8,30.1c5.6,9,13.3,13.5,23.3,13.5c7.9,0,14.7-3.4,20.2-10.1c5.6-6.7,8.3-16.8,8.3-30.2
	c0-14.9-2.7-25.7-8.1-32.3c-5.4-6.6-12.3-9.9-20.7-9.9c-8.2,0-15,3.2-20.5,9.7C50.5,208.5,47.7,218.2,47.7,231.1z"/>
<polygon class="st1" points="275,103.2 163.9,135.7 163.9,145.4 275,112.9 386.2,145.4 386.2,135.7 "/>
<polygon class="st1" points="275,118.9 163.9,151.3 163.9,161.1 275,128.6 386.2,161.1 386.2,151.3 "/>
<polygon class="st1" points="275,87.3 163.9,119.8 163.9,129.5 275,97 386.2,129.5 386.2,119.8 "/>
</svg>
