<svg id="Layer_1" data-name="Layer 1" xmlns="http://www.w3.org/2000/svg" viewBox="0 0 702.87 112.06"><defs><style>.cls-1{fill:#3b9946;}.cls-2,.cls-4{fill:#88c540;}.cls-3{fill:#349b46;}.cls-4{font-size:51.52px;font-family:Arial-BoldMT, Arial;}.cls-5{font-weight:700;}.cls-6{font-size:44.5px;fill:#58595b;font-family:ArialMT, Arial;}</style></defs><title>logo-vpp</title><path class="cls-1" d="M157.81,245.81V153.22h30q17.06,0,22.23,1.39a24.29,24.29,0,0,1,13.32,9.06q5.37,7,5.37,18,0,8.53-3.09,14.34a25.5,25.5,0,0,1-7.87,9.13,27.2,27.2,0,0,1-9.69,4.39q-6.69,1.32-19.39,1.32H176.5v34.93Zm18.69-76.93v26.28h10.23q11.06,0,14.78-1.46a12.19,12.19,0,0,0,5.84-4.54,12.48,12.48,0,0,0,2.12-7.2,12,12,0,0,0-3-8.34,12.87,12.87,0,0,0-7.51-4.1q-3.36-.63-13.46-.64Z" transform="translate(-48.56 -148.32)"/><path class="cls-1" d="M244.08,245.81V153.22h30q17,0,22.23,1.39a24.29,24.29,0,0,1,13.32,9.06q5.37,7,5.37,18,0,8.53-3.1,14.34a25.38,25.38,0,0,1-7.86,9.13,27.2,27.2,0,0,1-9.69,4.39q-6.71,1.32-19.39,1.32H262.77v34.93Zm18.69-76.93v26.28H273q11.06,0,14.78-1.46a12.24,12.24,0,0,0,5.84-4.54,12.48,12.48,0,0,0,2.12-7.2,12,12,0,0,0-3-8.34,12.9,12.9,0,0,0-7.52-4.1q-3.35-.63-13.45-.64Z" transform="translate(-48.56 -148.32)"/><path class="cls-1" d="M147.44,155.25a1.91,1.91,0,0,1-1,1.56l-.48.3-.51.35c-.34.23-.68.48-1,.73-.69.5-1.34,1.05-2,1.59-1.3,1.12-2.56,2.29-3.75,3.54s-2.32,2.55-3.41,3.89l-1.58,2.07c-.51.7-1,1.43-1.47,2.14-.24.36-.5.71-.72,1.09l-.67,1.12c-.43.75-.91,1.47-1.31,2.25-.79,1.55-1.65,3.07-2.31,4.68l-1,2.4-.88,2.44c-.64,1.59-1.09,3.34-1.61,5L123,193c-.14.44-.25.89-.4,1.32l-.47,1.29c-.29.87-.71,1.7-1.08,2.54-.18.43-.42.82-.63,1.23s-.42.82-.69,1.21A24.25,24.25,0,0,1,116.3,205a20.75,20.75,0,0,1-4.38,3.38c-.67.38-1.35.72-2,1l-4.1,12.38-3.58-10.47-.72.06a32.56,32.56,0,0,1-5.41-.17,29.8,29.8,0,0,1-5.28-1.08l.14-.47a29.55,29.55,0,0,0,5.21.8,31.83,31.83,0,0,0,5.26-.09l.45-.06s-10.92-.65-15.35-2c0,.13.06.26.08.39.27.23.53.46.78.7s.75.74,1.1,1.11.67.76,1,1.13.6.75.88,1.11.55.72.78,1.07c.47.71.9,1.36,1.23,2s.63,1.12.84,1.58.37.8.47,1.05.16.37.16.37l-.2.14-.31-.27c-.2-.17-.48-.44-.84-.77l-1.26-1.22c-.47-.47-1-1-1.6-1.57-.29-.29-.6-.58-.92-.88s-.63-.63-1-.95l-1-1c-.35-.33-.71-.67-1.07-1L83.35,209c-.39-.37-.79-.72-1.19-1.09l-.78-.66,2.25,6.31a8.85,8.85,0,0,0,.84-.5l.15.2c-.29.21-.58.4-.88.59l11.42,32h20" transform="translate(-48.56 -148.32)"/><path class="cls-2" d="M81.07,193.94c-.09-.9-.82-12.93,7.75-22.32l-6.48-18.4H62.07l13.29,36.54C78.39,190.67,81,193.86,81.07,193.94Z" transform="translate(-48.56 -148.32)"/><path class="cls-3" d="M90.92,209.61a29.41,29.41,0,0,0,5.21.8,30.66,30.66,0,0,0,5.25-.1,22.26,22.26,0,0,0,9.77-3.25,19,19,0,0,0,3.91-3.29,22.66,22.66,0,0,0,3-4.17,12.2,12.2,0,0,0,.58-1.14c.18-.39.39-.76.55-1.17.3-.8.66-1.58.9-2.41l.39-1.23c.12-.42.21-.84.32-1.26l.65-2.59c.44-1.73.83-3.44,1.45-5.19l.85-2.6,1-2.53c.63-1.71,1.47-3.32,2.24-5,.39-.82.86-1.6,1.29-2.41l.67-1.19c.21-.4.48-.78.71-1.17.49-.76,1-1.54,1.48-2.3l1.59-2.23c1.1-1.46,2.24-2.9,3.48-4.25s2.53-2.67,3.88-3.92c.7-.61,1.39-1.23,2.13-1.81.36-.29.73-.58,1.11-.85.19-.15.38-.29.58-.42l.64-.43.9,3.55c-1.75,0-3.63,0-5.45.17s-3.67.3-5.49.52a89,89,0,0,0-10.8,2c-1.76.46-3.52.94-5.25,1.5s-3.43,1.14-5.1,1.82-3.33,1.39-4.93,2.19a50.66,50.66,0,0,0-4.67,2.61A45.83,45.83,0,0,0,99.39,171a34.14,34.14,0,0,0-3.88,3.62,35.84,35.84,0,0,0-3.36,4.11,42.26,42.26,0,0,0-2.7,4.6,38.24,38.24,0,0,0-2,5A42.67,42.67,0,0,0,86,193.59a55.2,55.2,0,0,0-.8,5.48c-.19,1.84-.26,3.71-.32,5.59l-.48,0c-.14-.94-.31-1.87-.42-2.82s-.2-1.89-.24-2.84c0-.48-.06-.95-.07-1.43v-1.44c0-1,.06-1.91.09-2.88a47.34,47.34,0,0,1,.81-5.75,38.51,38.51,0,0,1,1.67-5.62,35.73,35.73,0,0,1,2.56-5.33,40.19,40.19,0,0,1,3.42-4.87,38.85,38.85,0,0,1,4.14-4.27A43.13,43.13,0,0,1,101,163.8a52.7,52.7,0,0,1,10.43-5.41c1.82-.69,3.66-1.33,5.53-1.85s3.74-1,5.63-1.37A100.73,100.73,0,0,1,134,153.55q2.86-.24,5.74-.32c1.93,0,3.8-.06,5.8,0h0a1.9,1.9,0,0,1,.86,3.55l-.48.3-.51.35c-.35.23-.69.47-1,.73-.68.49-1.33,1.05-2,1.59a49.89,49.89,0,0,0-3.74,3.54c-1.21,1.23-2.32,2.55-3.42,3.89l-1.58,2.06c-.5.71-1,1.44-1.47,2.15-.23.36-.5.71-.72,1.08l-.66,1.12c-.44.75-.92,1.48-1.32,2.25-.78,1.56-1.64,3.07-2.3,4.69l-1,2.4-.89,2.43c-.64,1.59-1.09,3.34-1.6,5L123,193c-.13.44-.25.88-.39,1.32l-.48,1.29c-.29.87-.71,1.7-1.07,2.54-.18.42-.43.82-.64,1.23s-.42.82-.68,1.2A24.42,24.42,0,0,1,116.3,205a20.44,20.44,0,0,1-4.39,3.37,23.44,23.44,0,0,1-10.44,3,32.56,32.56,0,0,1-5.41-.17,30.72,30.72,0,0,1-5.28-1.08Z" transform="translate(-48.56 -148.32)"/><path class="cls-3" d="M86.49,208.24c.9-1.8,3-5.1,3.9-7,.49-.94,1-1.86,1.53-2.81s1.11-1.83,1.66-2.75c1.18-1.8,2.39-3.59,3.67-5.27l1-1.27,1-1.23c.64-.82,1.32-1.59,2-2.37a81.16,81.16,0,0,1,7.79-7.89,65.33,65.33,0,0,1,6.22-4.84c1.59-1.07,2.54-1.58,2.54-1.58l-.2-.44a30.31,30.31,0,0,0-2.77,1.27c-.87.45-1.91,1-3.07,1.71s-2.45,1.52-3.81,2.49-2.81,2.06-4.28,3.28-3,2.58-4.5,4c-.75.74-1.52,1.48-2.26,2.27L95.69,187l-1.08,1.24c-.75.81-1.44,1.69-2.15,2.54s-1.38,1.76-2.08,2.65l-2,2.71c-.64.92-1.3,1.82-1.92,2.74s-1.23,1.83-1.78,2.77a6.56,6.56,0,0,0-.56.93Z" transform="translate(-48.56 -148.32)"/><path class="cls-3" d="M84.47,213.05a15.48,15.48,0,0,1-2.35,1.24,16.12,16.12,0,0,1-2.52.82,11.2,11.2,0,0,1-5.18,0,9.31,9.31,0,0,1-2.4-.92,11,11,0,0,1-2.09-1.49c-.17-.14-.32-.3-.47-.45s-.31-.3-.45-.47c-.28-.33-.58-.64-.83-1l-.39-.52-.35-.55-.74-1.12a26.89,26.89,0,0,0-1.54-2.23l-.84-1.1-.89-1c-.58-.71-1.25-1.34-1.89-2-.32-.33-.67-.62-1-.93l-.51-.46c-.17-.16-.36-.29-.53-.44l-1.08-.85-1.13-.8c-.76-.51-1.54-1-2.35-1.45a26.31,26.31,0,0,0-2.5-1.23c-.43-.17-.86-.36-1.3-.51-.22-.08-.45-.16-.68-.22l-.34-.11-.38-.1.16,1.84c.83-.3,1.74-.57,2.62-.81s1.8-.46,2.7-.66a46.25,46.25,0,0,1,5.47-.81c.92-.08,1.83-.14,2.75-.15s1.82,0,2.73,0,1.81.12,2.7.24a23.87,23.87,0,0,1,2.66.47,22.9,22.9,0,0,1,2.57.75,18.29,18.29,0,0,1,2.44,1.08,17.17,17.17,0,0,1,2.27,1.41,21.18,21.18,0,0,1,2,1.74,19.47,19.47,0,0,1,1.79,2.05,22.66,22.66,0,0,1,1.53,2.28,26.35,26.35,0,0,1,1.28,2.48c.39.84.73,1.72,1.07,2.6l.24-.06c-.09-.46-.17-.94-.27-1.4s-.21-.94-.35-1.4c-.07-.23-.13-.46-.2-.69l-.24-.68c-.14-.46-.34-.91-.51-1.36a22.72,22.72,0,0,0-1.33-2.6,20.3,20.3,0,0,0-1.72-2.41A19,19,0,0,0,80,197a19.28,19.28,0,0,0-2.43-1.76,19.09,19.09,0,0,0-2.67-1.35,23.46,23.46,0,0,0-2.82-1,26.5,26.5,0,0,0-5.86-.86c-1,0-2,0-2.93,0s-1.95.14-2.91.27a51.52,51.52,0,0,0-5.69,1.11c-.94.24-1.87.5-2.79.79s-1.82.6-2.76,1h0a1,1,0,0,0,.17,1.83l.28.06.3.08.61.18c.41.13.81.28,1.21.43.8.32,1.6.67,2.37,1.07s1.52.83,2.26,1.29l1.09.72,1.06.78.52.4.5.42c.33.29.68.56,1,.86.63.61,1.29,1.19,1.87,1.85l.89,1,.83,1c.56.65,1.06,1.41,1.59,2.14l.78,1.09c.14.19.26.38.4.56l.44.54c.28.37.62.69.93,1,.16.17.34.32.51.48a5.7,5.7,0,0,0,.52.46A12.49,12.49,0,0,0,71.62,215a10.86,10.86,0,0,0,2.65.88,11.72,11.72,0,0,0,5.46-.29,15.39,15.39,0,0,0,2.55-1,14.43,14.43,0,0,0,2.33-1.38Z" transform="translate(-48.56 -148.32)"/><path class="cls-3" d="M65.41,199.19s.54.09,1.47.34a32.33,32.33,0,0,1,3.76,1.28,39.61,39.61,0,0,1,5,2.47c.44.26.89.52,1.33.81l.67.42.66.45c.89.59,1.76,1.24,2.61,1.9.42.35.84.68,1.25,1s.8.72,1.18,1.09l2.24,2.18c.35.35.71.7,1.07,1l1,1,1,.95c.31.3.63.59.91.88.58.58,1.14,1.09,1.61,1.57l1.26,1.21c.35.34.64.6.83.78l.31.27.2-.14-.15-.38c-.1-.24-.26-.6-.48-1.05s-.49-1-.83-1.57-.76-1.26-1.24-2c-.23-.36-.5-.7-.77-1.07s-.56-.75-.88-1.11-.64-.76-1-1.13-.72-.75-1.1-1.12-.8-.71-1.22-1.07-.86-.68-1.3-1-.91-.66-1.37-1l-1.39-1c-.48-.3-.94-.62-1.42-.91s-1-.59-1.45-.86l-.72-.41-.72-.38c-.48-.26-1-.48-1.45-.71-1-.44-1.89-.84-2.8-1.17s-1.78-.62-2.58-.86-1.56-.41-2.23-.56-1.25-.24-1.73-.31c-1-.13-1.54-.15-1.54-.15Z" transform="translate(-48.56 -148.32)"/><text class="cls-4" transform="translate(282.41 44.2)"><tspan class="cls-5">Group Developer</tspan><tspan class="cls-6"><tspan x="0" y="53.41">Management System</tspan></tspan></text></svg>